<svg xmlns="http://www.w3.org/2000/svg" viewBox="0 0 24 24"><path d="M23.994 6.124a9.23 9.23 0 0 0-.24-2.19c-.317-1.31-1.062-2.31-2.18-3.043a5.022 5.022 0 0 0-1.877-.726 10.496 10.496 0 0 0-1.564-.15c-.073-.005-.146-.01-.22-.015H6.117l-.174.01c-.57.023-1.14.055-1.7.168a5.1 5.1 0 0 0-1.97.78C1.166 1.82.467 2.93.196 4.274a9.48 9.48 0 0 0-.18 1.755c0 .047-.008.095-.012.142v11.65l.01.198c.023.6.053 1.2.175 1.79.36 1.74 1.3 3.01 2.895 3.78.53.26 1.1.4 1.69.47.5.06 1.01.09 1.52.1h12.17c.39-.01.78-.03 1.17-.08a5.12 5.12 0 0 0 2.01-.59c1.29-.68 2.13-1.75 2.58-3.13.22-.68.31-1.38.36-2.09.03-.42.05-.84.05-1.26V6.294c-.01-.057-.01-.113-.016-.17zM16.95 13.13c0 1.33-.01 2.66 0 3.99.01.46-.06.9-.24 1.32-.41.97-1.13 1.56-2.17 1.78-.43.09-.86.12-1.29.09-.75-.06-1.38-.36-1.83-.96-.46-.6-.56-1.28-.42-2 .18-.95.82-1.55 1.7-1.9.46-.18.94-.27 1.43-.35.42-.06.83-.13 1.25-.21.24-.05.39-.19.43-.44.01-.05.01-.11.01-.17V8.47c0-.15-.05-.28-.19-.35-.1-.06-.21-.04-.31-.02l-5.2 1.11c-.14.03-.23.1-.26.24-.01.05-.01.09-.01.14v7.47c0 .38 0 .76-.02 1.14-.04.58-.17 1.14-.54 1.62-.42.55-.97.86-1.64 1-1.01.2-1.92.04-2.7-.63-.57-.48-.83-1.1-.77-1.85.07-.82.5-1.41 1.2-1.82.46-.27.95-.42 1.47-.53.38-.08.77-.14 1.15-.22.29-.06.52-.19.6-.51.03-.11.03-.22.03-.34v-8.2c0-.34.1-.62.4-.81.18-.12.38-.18.59-.22l6.27-1.33c.31-.07.63-.12.95-.09.47.04.74.32.77.8v8.06z" fill="#FA243C"/></svg>
